<svg id="visual" viewBox="0 0 900 600" width="900" height="600" xmlns="http://www.w3.org/2000/svg" xmlns:xlink="http://www.w3.org/1999/xlink" version="1.1"><path d="M0 570L50 578L100 573L150 571L200 582L250 572L300 579L350 559L400 554L450 569L500 571L550 561L600 558L650 558L700 582L750 560L800 582L850 554L900 562L900 601L850 601L800 601L750 601L700 601L650 601L600 601L550 601L500 601L450 601L400 601L350 601L300 601L250 601L200 601L150 601L100 601L50 601L0 601Z" fill="#000000" stroke-linecap="square" stroke-linejoin="bevel"></path></svg>